<?xml version="1.0" encoding="UTF-8"?><svg id="Layer_2" xmlns="http://www.w3.org/2000/svg" viewBox="0 0 1078.01 210.8"><defs><style>.cls-1{fill:#fff;}</style></defs><g id="Layer_2-2"><path class="cls-1" d="M321.73,195.17c-.78-.66-1.82-1.06-2.96-1.06s-2.19.4-2.96,1.06c-.79.67-1.32,1.61-1.38,2.69-.06,1.1.38,2.12,1.16,2.88.79.77,1.92,1.26,3.18,1.26s2.39-.48,3.18-1.26c.78-.76,1.22-1.78,1.16-2.88-.06-1.07-.59-2.01-1.38-2.68Z"/><path class="cls-1" d="M329.72,197.74c-.19-1.33-.65-2.58-1.36-3.72-.65-1.05-1.49-1.96-2.48-2.73h0s-10.04-7.71-10.04-7.71c0,0-.02-.01-.03-.02-.66-.51-1.77-.5-2.49,0-.73.51-.82,1.36-.16,1.89h0s4.19,3.41,4.19,3.41h-12.76s-.02.01-.02.01c-1.05,0-2.07.69-2.27,1.57-.21.89.51,1.63,1.61,1.63h0s6.47,0,6.47,0l-11.54,8.86s-.03.02-.04.03c-1.09.83-1.44,2.22-.75,3.1.7.89,2.18.89,3.28,0l6.3-5.16s-.09.7-.08,1.11c0,.42.14,1.23.34,1.87.42,1.35,1.14,2.59,2.13,3.69,1.02,1.13,2.28,2.04,3.73,2.68,1.53.68,3.18,1.02,4.9,1.02,1.72,0,3.37-.35,4.9-1.03,1.45-.65,2.71-1.56,3.73-2.69.99-1.1,1.71-2.35,2.13-3.7.21-.68.35-1.37.4-2.06.05-.68.03-1.37-.07-2.05ZM325.1,200.18c-.29.79-.75,1.53-1.39,2.18-1.3,1.32-3.11,2.07-5.08,2.08-1.97,0-3.79-.74-5.08-2.06-.63-.64-1.1-1.38-1.39-2.17-.28-.77-.39-1.6-.32-2.43.07-.81.31-1.58.7-2.28.38-.69.9-1.31,1.54-1.84,1.26-1.03,2.87-1.58,4.55-1.59,1.68,0,3.29.55,4.55,1.57.64.52,1.16,1.14,1.54,1.83.39.7.63,1.47.7,2.28.07.83-.04,1.65-.32,2.43Z"/><path class="cls-1" d="M141.49,188.24l-10.85-6.26c-.62-.36-1.38-.36-2,0l-10.85,6.26c-.62.36-1,1.02-1,1.73v12.52c0,.71.38,1.37,1,1.73l10.85,6.26c.62.36,1.38.36,2,0l10.85-6.26c.62-.36,1-1.02,1-1.73v-12.52c0-.71-.38-1.37-1-1.73ZM135.1,190.96s.07.07.1.1c.48.48.85,1.02,1.12,1.6-.03.01-.07.02-.1.04-.89.42-1.16,1.98-1.16,2-.18,1.19-.47,2.4-.97,3.5-.08.16-.4.74-.99,1.28-.01.01-.03.03-.04.04h0s-.05.04-.07.06c-1.76,1.5-4.46,1.38-6.18-.33-1.77-1.76-1.85-4.56-.21-6.31.03-.03.05-.06.08-.08.01-.01.02-.02.03-.03,0,0,.01,0,.02-.02.49-.49.98-.76,1.13-.83,1.1-.5,2.32-.79,3.5-.97.01,0,1.58-.28,2-1.16.02-.03.03-.07.04-.1.58.27,1.12.64,1.6,1.12.03.03.07.07.1.1ZM129.73,205.34c-2.42,0-4.68-.93-6.4-2.63v-.02h-.02c-1.7-1.72-2.63-3.98-2.63-6.39,0-5.01,4.07-9.07,9.08-9.07.64,0,1.25,0,1.88.13.32.06.89.14,1.28.34.16.08.29.18.37.31.57.96-1.3,1.6-1.94,1.7-4.04.61-5.78,1.72-7.06,2.92,0,0,0,0,0,0-.08.07-.16.15-.23.22-.52.54-1.72,2.01-1.75,4.15.02,1.71.68,3.42,1.99,4.72,1.31,1.31,3.01,1.97,4.73,1.99,2.14-.03,3.62-1.23,4.15-1.75.07-.08.15-.15.22-.23,0,0,0,0,0,0,1.2-1.28,2.31-3.01,2.92-7.05.1-.64.75-2.51,1.7-1.94.13.08.23.21.31.37.2.39.27.96.34,1.28.13.63.13,1.24.13,1.88h0c0,5.01-4.07,9.07-9.08,9.07Z"/><path class="cls-1" d="M232.53,188.21l-10.89-6.28c-.62-.36-1.39-.36-2.01,0l-10.89,6.28c-.62.36-1,1.02-1,1.74v12.57c0,.72.38,1.38,1,1.74l10.89,6.28c.62.36,1.39.36,2.01,0l10.89-6.28c.62-.36,1-1.02,1-1.74v-12.57c0-.72-.38-1.38-1-1.74ZM214.23,193.69v6.3c0,.15-.07.29-.22.37l-1.91,1.17c-.29.15-.66-.07-.66-.37v-8.97c0-.56.3-1.07.78-1.35l2.89-1.65,4.83-2.76h0c.29-.15.66.07.66.37v2.2c0,.15-.07.3-.22.37l-5.5,3.22c-.44.22-.66.66-.66,1.1ZM219.37,195.23c-.29.22-.51.59-.51.95v6.38c0,.15-.07.29-.22.37l-1.91,1.17c-.29.15-.66-.07-.66-.37v-8.96c0-.56.3-1.07.78-1.35l1.5-.85h0s6.23-3.57,6.23-3.57h0c.29-.15.66.07.66.36v2.2c0,.15-.07.29-.22.37l-5.65,3.3ZM228.97,202.19h0s-7.78,4.47-7.78,4.47c-.29.15-.66-.07-.66-.37v-9.09c0-.44.22-.81.59-1.03l5.58-3.22,2.35-1.32c.29-.15.66.07.66.37v8.87c.07.66-.22,1.1-.74,1.32Z"/><path class="cls-1" d="M393.35,204.18v4.55h3.98c-1.94-1.1-3.3-2.78-3.98-4.55Z"/><path class="cls-1" d="M410.06,199.44c0-4.21-3.38-8.25-8.45-8.42-3.59-.13-6.39,1.2-8.26,3.14v4.39c1.27-3.68,4.79-5.37,7.73-5.34,3.68.03,6.51,2.81,6.53,5.94.02,2.99-1.24,5.2-4.63,5.74-1.84.3-4.74-.79-4.61-3.57.07-1.44,1.19-2.25,2.47-2.19-1.26,1.68.41,2.92,1.58,2.66,1.46-.31,2.05-1.6,2.05-2.61,0-1.06-1-2.77-3.47-2.71-3.06.07-4.99,2.28-5.05,5-.08,3.43,3.12,5.68,6.41,5.72,4.83.06,7.7-3.11,7.69-7.75h.02Z"/><path class="cls-1" d="M393.35,183.73v7.19c2.15-1.65,4.95-2.71,8.26-2.71,7.09,0,11.6,4.96,11.59,11.21,0,4.34-2.03,7.61-5.2,9.31h10.35v-25h-25,0Z"/><path class="cls-1" d="M497.17,182.69c7.48.18,13.39,6.39,13.21,13.87-.18,7.48-6.39,13.39-13.87,13.21-7.48-.18-13.39-6.39-13.21-13.87v-.03c.2-7.47,6.4-13.36,13.87-13.18ZM497.17,184.09c-6.7-.19-12.29,5.1-12.47,11.8-.19,6.7,5.1,12.29,11.8,12.47,6.7.19,12.29-5.1,12.47-11.8v-.03c.17-6.69-5.11-12.26-11.8-12.44h0ZM503.76,193.46h2.71c1.1,0,.77-.99.77-.99-.51-1.44-1.32-2.76-2.38-3.87h0c-1.07-1.11-2.36-2.01-3.79-2.62-.34-.18-.75-.05-.93.29-.07.13-.09.27-.07.42-.05.9-.16,2.7-.16,2.7,0,0,.02.87-.71.87-.92.01-1.68-.05-1.68-.05-.52-.06-1.02-.27-1.42-.61l-2.79-2.94c-.4-.46-1.08-.55-1.59-.22-2.48,1.28-4.38,3.45-5.32,6.08-.29.81.38.91.82.91h6.77c.71-.06,1.4.2,1.9.71.89.93,1.5,1.54,1.5,1.54,0,0,.54.61,1.42,1.53.49.52.71,1.23.61,1.93,0,0-.33,6.48-.33,6.77-.03.45.04,1.12.87.87,2.67-.8,4.93-2.59,6.34-4.99.36-.49.3-1.17-.14-1.6l-2.79-2.94c-.33-.41-.52-.92-.56-1.45,0,0-.02-.77.04-1.68.05-.73.9-.66.9-.66h0ZM501.1,195.01c-.54.53-1.67.26-2.5-.61-.83-.87-1.04-2.03-.51-2.54.54-.51,1.69-.27,2.53.6.83.87,1.02,2.02.49,2.55Z"/><path class="cls-1" d="M869.67,183.05h-17.7c-2.68,0-4.85,2.17-4.85,4.85v17.01c0,2.68,2.17,4.85,4.85,4.85h17.7c2.68,0,4.85-2.17,4.85-4.85v-17.01c0-2.68-2.17-4.85-4.85-4.85ZM861.06,196.34c-.46.64-1.1,1.12-1.84,1.39-.82.3-1.7.45-2.57.43-.27,0-.46,0-.57-.01s-.27-.01-.49-.01v3.62c.01.08-.05.15-.13.16h-2.3c-.09,0-.13-.05-.13-.15v-11.74c0-.09.03-.13.11-.13.19,0,.43,0,.7-.01.27-.01.56-.01.87-.02.31-.01.64-.01.99-.02.35-.01.7-.01,1.04-.01.94,0,1.71.11,2.35.35.57.19,1.1.51,1.53.94.37.37.65.81.83,1.3.17.48.26.97.26,1.48.01.98-.22,1.79-.67,2.42ZM868.66,194.8c.01.06-.03.11-.09.13h-1.75v3.94c0,.41.07.72.22.89.14.18.4.26.78.26.11,0,.22,0,.31-.01.1-.01.19-.01.3-.02.03-.01.07-.01.1.01.03.02.05.06.05.11v1.51c0,.14-.05.22-.15.24-.24.08-.49.14-.73.18-.3.06-.58.08-.88.07-.8,0-1.43-.21-1.87-.63-.46-.41-.69-1.08-.69-2v-4.56h-1.08c-.1,0-.15-.06-.15-.16v-1.82c0-.1.06-.15.16-.15h1.08c.01-.21.02-.45.05-.73.02-.27.05-.55.07-.82.03-.27.06-.5.08-.67.01-.03.03-.07.06-.1s.06-.06.09-.07l2.19-.27s.08-.01.1,0,.02.05.02.1c-.02.29-.05.66-.06,1.15-.01.48-.02.95-.03,1.4h1.71c.07,0,.11.05.11.15v1.86h0Z"/><path class="cls-1" d="M858.17,192.31c-.42-.17-.88-.24-1.35-.23-.3,0-.56,0-.78.01-.23.01-.39.01-.47.02v3.8c.16.01.31.02.45.02h.61c.45.01.89-.06,1.31-.18.37-.1.69-.32.94-.61.24-.29.35-.67.35-1.18.01-.35-.08-.71-.26-1.02-.19-.3-.47-.53-.8-.65Z"/><path class="cls-1" d="M949.7,193c-.37-.32-.79-.56-1.24-.69-.51-.15-1.05-.23-1.59-.22-.24,0-.45,0-.62.01-.16.01-.35.01-.56.02v7.62c.14,0,.26,0,.37.01.11.01.23.01.34.02.11.01.25.01.4.01.56.01,1.11-.08,1.63-.26.47-.16.9-.42,1.26-.78s.64-.79.81-1.27c.19-.55.3-1.13.29-1.71.01-.55-.08-1.1-.27-1.61-.18-.46-.46-.86-.81-1.16Z"/><path class="cls-1" d="M960.67,183.05h-17.7c-2.68,0-4.85,2.17-4.85,4.85v17.01c0,2.68,2.17,4.85,4.85,4.85h17.7c2.68,0,4.85-2.17,4.85-4.85v-17.01c0-2.68-2.17-4.85-4.85-4.85ZM953.05,198.04c-.23.64-.58,1.24-1.03,1.76-.42.48-.92.89-1.48,1.22-.55.32-1.14.57-1.77.72-.61.15-1.23.23-1.86.23h-1.37c-.48,0-.94,0-1.35-.01-.42-.01-.73-.01-.94-.02-.07,0-.11-.06-.11-.18v-11.69c-.01-.07.05-.14.13-.15h.01c.18-.01.46-.02.81-.02.35-.01.78-.01,1.24-.02.48-.01.98-.01,1.53-.01,1.47,0,2.69.25,3.65.75.91.46,1.68,1.18,2.18,2.07.48.88.73,1.88.73,3.03.01.8-.11,1.59-.38,2.34ZM960.93,200.73c-.32.46-.77.81-1.28,1.02-.56.24-1.24.37-2.07.37-.53,0-1.04-.05-1.55-.15-.39-.07-.77-.19-1.11-.37-.08-.05-.14-.13-.13-.22v-1.99s.01-.08.05-.1c.03-.02.07-.01.1.01.42.26.88.45,1.36.56.43.11.89.17,1.35.17s.74-.06.95-.16c.18-.08.31-.27.31-.48,0-.16-.09-.31-.27-.46-.18-.15-.56-.32-1.12-.54-.58-.21-1.12-.48-1.62-.82-.35-.25-.65-.58-.87-.97-.18-.37-.27-.77-.26-1.16,0-.49.14-.96.39-1.38.29-.46.71-.82,1.2-1.05.54-.27,1.21-.4,2.02-.4.47,0,.95.03,1.42.1.33.05.65.14.96.26.05.01.09.06.11.1.01.05.02.09.02.14v1.86s-.02.09-.06.11-.09.02-.13,0c-.34-.18-.71-.31-1.1-.39-.42-.09-.85-.15-1.28-.15-.23-.01-.47.02-.69.08-.15.03-.27.11-.35.23-.06.09-.09.21-.09.31s.05.21.11.3c.1.13.24.23.39.31.26.14.54.26.81.38.62.21,1.21.49,1.76.83.38.24.69.56.9.95.18.37.27.77.26,1.18-.06.55-.21,1.07-.5,1.52Z"/><path class="cls-1" d="M585.38,191.95c-.43-.17-.88-.24-1.34-.23-.29,0-.56,0-.78,0-.23,0-.38.02-.47.03v3.83c.16.01.31.02.44.02h.61c.45,0,.89-.07,1.31-.21.36-.11.69-.32.94-.61.24-.28.36-.67.36-1.18,0-.35-.08-.7-.27-1.01-.19-.29-.47-.52-.8-.65Z"/><path class="cls-1" d="M597.14,182.69h-18.6c-2.43,0-4.4,1.97-4.4,4.4v17.92c0,2.43,1.97,4.4,4.4,4.4h18.6c2.43,0,4.4-1.97,4.4-4.4v-17.92c0-2.43-1.97-4.4-4.4-4.4ZM588.26,195.99c-.46.64-1.1,1.12-1.84,1.38-.77.29-1.63.39-2.57.39-.27,0-.46,0-.57,0-.11,0-.28,0-.5,0v3.67c.01.08-.04.15-.12.16-.01,0-.03,0-.04,0h-2.19c-.09,0-.13-.05-.13-.14v-11.75c0-.09.04-.13.11-.13.2,0,.38,0,.64,0l.87-.02.99-.02c.35,0,.7,0,1.04,0,.93,0,1.72.12,2.35.35.57.19,1.1.52,1.53.94.37.37.65.81.84,1.3.17.47.26.98.25,1.48,0,.98-.23,1.79-.68,2.43ZM596.33,200.43c-.32.46-.76.81-1.28,1.02-.56.25-1.25.37-2.07.37-.52,0-1.04-.04-1.55-.15-.4-.07-.79-.2-1.17-.37-.08-.04-.13-.13-.13-.22v-1.98s.01-.08.05-.1c.03-.02.07-.01.1,0,.44.26.91.45,1.41.56.44.11.89.17,1.34.18.43,0,.74-.05.95-.16.19-.09.31-.27.3-.48-.02-.19-.12-.36-.28-.46-.18-.15-.56-.32-1.12-.53-.58-.2-1.12-.48-1.63-.83-.36-.25-.66-.58-.86-.97-.18-.36-.27-.76-.27-1.17,0-.49.13-.97.39-1.38.29-.46.7-.82,1.19-1.05.54-.27,1.21-.4,2.02-.4.47,0,.95.03,1.42.1.34.04.67.13.99.27.05.01.09.05.11.1.01.05.02.09.02.14v1.86s-.02.09-.06.11c-.05.03-.11.03-.16,0-.35-.18-.71-.31-1.09-.39-.42-.1-.85-.15-1.28-.15-.23,0-.47.02-.69.08-.14.03-.27.11-.36.23-.06.09-.09.2-.09.31,0,.11.04.21.11.29.11.13.24.23.39.3.26.14.53.27.81.38.62.21,1.21.49,1.76.84.37.24.68.56.9.95.18.36.27.77.27,1.18,0,.54-.14,1.06-.44,1.51Z"/><path class="cls-1" d="M687.68,182.69h-17.7c-2.68,0-4.85,2.17-4.85,4.85v17.01c0,2.68,2.17,4.85,4.85,4.85h17.7c2.68,0,4.85-2.17,4.85-4.85v-17.01c0-2.68-2.17-4.85-4.85-4.85ZM679.65,201.53h-2.39c-.09,0-.16-.05-.18-.13l-.94-2.73h-4.25l-.86,2.69c-.02.1-.12.17-.22.17h-2.15c-.12,0-.17-.07-.13-.2l3.68-10.55c.04-.11.07-.22.11-.36.05-.25.07-.49.07-.74,0-.06.03-.12.1-.13.01,0,.02,0,.03,0h2.92c.09,0,.13.03.15.09l4.17,11.7c.04.12,0,.18-.11.18ZM688.62,196.98c-.02.22-.03.38-.05.48,0,.08-.08.15-.17.15-.08,0-.2,0-.38.03-.18.02-.4.03-.66.04-.27,0-.54-.04-.84-.04h-3.62c.04.36.16.7.35,1.01.21.3.5.54.84.69.46.2.96.3,1.46.29.4,0,.79-.05,1.19-.13.35-.05.69-.14,1.02-.27.06-.05.09-.02.09.09v1.75s0,.1-.03.14c-.02.03-.05.06-.08.08-.36.16-.75.28-1.14.34-.53.1-1.07.15-1.62.14-.87,0-1.6-.13-2.19-.4-.56-.24-1.05-.62-1.43-1.08-.36-.44-.63-.95-.79-1.5-.16-.54-.24-1.1-.24-1.66,0-.61.09-1.23.29-1.81.18-.57.47-1.1.86-1.56.38-.46.85-.83,1.38-1.08.54-.26,1.18-.36,1.91-.36.61-.02,1.22.1,1.77.35.47.2.88.52,1.2.91.3.39.53.83.69,1.3.14.45.22.92.22,1.4,0,.27,0,.51-.03.74Z"/><path class="cls-1" d="M684.67,194.27c-.63-.04-1.23.3-1.52.86-.13.26-.21.53-.25.82h2.41c.29,0,.51,0,.65,0,.09,0,.19-.04.27-.09v-.11c0-.14-.03-.29-.07-.42-.2-.64-.81-1.07-1.48-1.05Z"/><path class="cls-1" d="M674.89,194.6l-.33-1.05c-.11-.35-.21-.69-.3-1.01s-.17-.62-.25-.89h-.02c-.1.5-.23.99-.39,1.47-.17.55-.35,1.12-.52,1.69-.18.58-.35,1.11-.52,1.6h2.9c-.08-.25-.16-.52-.26-.83-.1-.31-.2-.63-.31-.98Z"/><path class="cls-1" d="M768.15,194.6l-.33-1.05c-.11-.35-.21-.69-.3-1.01-.09-.32-.17-.62-.25-.89h-.02c-.1.5-.23.99-.39,1.47-.17.55-.35,1.12-.52,1.69s-.35,1.11-.52,1.6h0s2.9,0,2.9,0c-.08-.25-.16-.52-.26-.83-.1-.31-.2-.63-.31-.98Z"/><path class="cls-1" d="M778.68,182.69h-17.7c-2.68,0-4.85,2.17-4.85,4.85v17.01c0,2.68,2.17,4.85,4.85,4.85h17.7c2.68,0,4.85-2.17,4.85-4.85v-17.01c0-2.68-2.17-4.85-4.85-4.85ZM772.92,201.57h-2.39c-.08,0-.16-.05-.18-.13l-.94-2.72h-4.25l-.86,2.68c-.02.1-.12.17-.22.17h-2.15c-.12,0-.17-.07-.13-.2l3.68-10.59c.04-.11.07-.24.11-.38.05-.25.07-.49.07-.74,0-.06.03-.12.1-.13.01,0,.02,0,.03,0h2.92c.09,0,.14.03.15.09l4.17,11.76c.04.12,0,.18-.11.18ZM776.79,201.39c0,.12-.05.18-.15.18h-2.24c-.11,0-.17-.06-.17-.19v-8.79c0-.11.05-.17.15-.17h2.26c.1,0,.15.06.15.17v8.79ZM776.57,191.08c-.28.28-.66.42-1.06.4-.38.02-.75-.13-1.01-.4-.26-.28-.4-.66-.39-1.05-.01-.38.14-.75.41-1.02.27-.26.64-.41,1.02-.4.44,0,.79.13,1.04.4.26.28.39.64.38,1.02.02.39-.13.77-.4,1.05Z"/><path class="cls-1" d="M9.53,43.35c.58,2.9,2.98,4.89,5.88,4.89h5.72c3.23,0,5.97-2.65,5.97-5.97,0-3.56-2.07-6.13-6.3-7.71l-6.8-2.57C5.47,28.6,1.24,23.21,1.24,15.91c0-4.39,1.58-8.12,4.64-11.19C8.95,1.57,12.76,0,17.16,0h3.98c3.65,0,6.88,1.16,9.78,3.4,2.9,2.24,4.72,5.14,5.64,8.62l-9.62,2.74c-.58-2.74-2.9-4.81-5.8-4.81h-3.98c-3.32,0-5.97,2.65-5.97,5.97,0,2.9,1.24,4.81,6.63,6.88l6.8,2.65c7.71,3.07,12.43,9.12,12.43,16.83,0,4.39-1.58,8.21-4.72,11.27-3.07,3.07-6.8,4.64-11.19,4.64h-5.72c-7.38,0-13.68-5.06-15.42-12.02l9.53-2.82Z"/><path class="cls-1" d="M152.59,34.56c.41,1.91,1.58,6.96,1.58,12.18v10.69h-9.95v-11.77h-18.9v11.77h-9.95v-10.69c0-1.91.17-3.98.41-6.13.33-2.24.58-3.81.83-4.89l.5-1.99,7.21-25.94c1.33-4.56,5.55-7.79,10.44-7.79s9.03,3.23,10.44,7.79l7.21,25.94.17.83ZM126.9,35.72h15.75l-6.88-25.03c-.17-.5-.5-.75-.99-.75-.58,0-.91.25-1,.75l-6.88,25.03Z"/><path class="cls-1" d="M230.42.75h12.18l7.71,27.68,7.71-27.68h12.18v56.69h-9.95V18.07l-5.88,21.47h-8.12l-5.88-21.47v39.37h-9.95V.75Z"/><path class="cls-1" d="M470.54.75v11.11c0,3.4.25,6.8.83,10.03l2.74,17.41,3.07-18.15h8.46l3.07,18.15,2.74-17.41c.58-3.23.83-6.63.83-10.11V.75h9.95v11.11c0,3.9-.33,7.79-.91,11.69l-5.72,33.9h-9.78l-4.39-21.63-4.39,21.63h-9.78l-5.72-33.9c-.58-3.9-.91-7.79-.91-11.69V.75h9.95Z"/><path class="cls-1" d="M614.76,34.56c.41,1.91,1.58,6.96,1.58,12.18v10.69h-9.95v-11.77h-18.9v11.77h-9.95v-10.69c0-1.91.17-3.98.42-6.13.33-2.24.58-3.81.83-4.89l.5-1.99,7.21-25.94c1.33-4.56,5.55-7.79,10.44-7.79s9.03,3.23,10.44,7.79l7.21,25.94.17.83ZM589.07,35.72h15.75l-6.88-25.03c-.17-.5-.5-.75-.99-.75-.58,0-.91.25-1,.75l-6.88,25.03Z"/><path class="cls-1" d="M707.01.75v46.75h24.12v9.95h-34.07V.75h9.95Z"/><path class="cls-1" d="M821.06.75v23.12h3.23l10.69-11.6c1.82-2.07,2.74-4.14,2.74-6.38V.75h9.95v5.22c0,4.89-1.74,9.2-5.3,13.01l-9.2,9.86,9.78,10.36c1.58,1.66,2.82,3.56,3.73,5.8.91,2.16,1.41,3.73,1.49,4.72.17.91.25,1.74.25,2.49v5.22h-9.95v-5.14c0-2.24-.91-4.31-2.74-6.22l-11.44-12.27h-3.23v23.62h-9.95V.75h9.95Z"/><path class="cls-1" d="M927.4.75h34.81v9.95h-24.87v13.43h22.38v9.95h-22.38v13.43h24.87v9.95h-34.81V.75Z"/><path class="cls-1" d="M1078.01,52.22v5.22h-9.95v-5.22c0-2.24-.91-4.31-2.74-6.22l-8.95-9.45h-3.98v20.89h-9.95V.75h18.9c4.39,0,8.21,1.57,11.27,4.64,3.07,3.07,4.64,6.88,4.64,11.27v3.98c0,6.05-3.48,11.6-8.79,14.26l4.14,4.31c3.56,3.9,5.39,8.21,5.39,13.01ZM1052.4,26.61h8.95c3.32,0,5.97-2.65,5.97-5.97v-3.98c0-3.32-2.65-5.97-5.97-5.97h-8.95v15.91Z"/><path class="cls-1" d="M17.52,101.38c-.53-2.13-2.38-3.62-4.62-3.62h-1.71c-1.31,0-2.42.46-3.38,1.42-.92.92-1.38,2.02-1.38,3.34v12.86c0,1.31.46,2.42,1.38,3.37.92.92,2.06,1.39,3.38,1.39h1.71c2.24,0,4.08-1.49,4.62-3.62l1.24.35c-.68,2.67-3.06,4.55-5.86,4.55h-1.71c-1.67,0-3.13-.57-4.3-1.74-1.17-1.17-1.74-2.63-1.74-4.3v-12.86c0-1.67.57-3.09,1.74-4.26s2.63-1.78,4.3-1.78h1.71c1.38,0,2.63.43,3.73,1.31,1.1.85,1.81,1.92,2.13,3.23l-1.24.36Z"/><path class="cls-1" d="M53.69,101.38c-.53-2.13-2.38-3.62-4.62-3.62h-1.71c-1.31,0-2.45.46-3.38,1.42-.92.92-1.39,2.02-1.39,3.34v12.86c0,1.31.46,2.42,1.39,3.37.92.92,2.06,1.39,3.38,1.39h1.71c1.31,0,2.45-.46,3.37-1.39.92-.96,1.39-2.06,1.39-3.37v-5.79h-5.36v-1.28h6.64v7.07c0,1.67-.6,3.13-1.78,4.3-1.17,1.17-2.59,1.74-4.26,1.74h-1.71c-1.67,0-3.09-.57-4.26-1.74-1.17-1.17-1.78-2.63-1.78-4.3v-12.86c0-1.67.6-3.09,1.78-4.26s2.59-1.78,4.26-1.78h1.71c1.38,0,2.63.43,3.73,1.31,1.1.85,1.81,1.92,2.13,3.23l-1.24.36Z"/><path class="cls-1" d="M83.85,119.81v-21.74h-5.9v-1.28h13.07v1.28h-5.9v21.74h6.04v1.28h-13.36v-1.28h6.04Z"/><path class="cls-1" d="M149.13,118.96c0-1.74.57-3.38,1.67-4.94l9.17-12.01c.6-.82,1.03-1.95,1.07-2.52l.04-.46v-2.24h4.26v2.24c0,1.95-.67,3.8-1.99,5.58l-9.13,12.01c-.07.07-.82,1.14-.82,2.34v2.13h-4.26v-2.13Z"/><path class="cls-1" d="M185.51,118.96c0-1.74.57-3.38,1.67-4.94l9.17-12.01c.6-.82,1.03-1.95,1.07-2.52l.04-.46v-2.24h4.26v2.24c0,1.95-.67,3.8-1.99,5.58l-9.13,12.01c-.07.07-.82,1.14-.82,2.34v2.13h-4.26v-2.13Z"/><path class="cls-1" d="M258.9,96.79h1.71l5.75,14.99,5.75-14.99h1.71v24.3h-1.28v-21.95l-5.51,14.28h-1.35l-5.51-14.28v21.95h-1.28v-24.3Z"/><path class="cls-1" d="M297.58,119.67c-1.17-1.17-1.74-2.63-1.74-4.3v-12.86c0-1.67.6-3.09,1.78-4.26s2.59-1.78,4.26-1.78h1.71c1.67,0,3.09.6,4.26,1.78,1.17,1.17,1.78,2.59,1.78,4.26v12.86c0,1.67-.6,3.13-1.78,4.3-1.17,1.17-2.59,1.74-4.26,1.74h-1.71c-1.67,0-3.13-.57-4.3-1.74ZM303.58,120.13c1.31,0,2.45-.46,3.38-1.39.92-.92,1.39-2.06,1.39-3.37v-12.86c0-1.31-.46-2.45-1.39-3.38s-2.06-1.38-3.38-1.38h-1.71c-1.31,0-2.42.46-3.37,1.42-.92.92-1.39,2.02-1.39,3.34v12.86c0,1.31.46,2.42,1.39,3.37.96.92,2.06,1.39,3.37,1.39h1.71Z"/><path class="cls-1" d="M346.46,96.79v1.28h-6.71v23.02h-1.28v-23.02h-6.71v-1.28h14.71Z"/><path class="cls-1" d="M374.84,119.81v-21.74h-5.9v-1.28h13.07v1.28h-5.9v21.74h6.04v1.28h-13.36v-1.28h6.04Z"/><path class="cls-1" d="M406.71,119.67c-1.17-1.17-1.74-2.63-1.74-4.3v-12.86c0-1.67.6-3.09,1.78-4.26s2.59-1.78,4.26-1.78h1.71c1.67,0,3.09.6,4.26,1.78,1.17,1.17,1.78,2.59,1.78,4.26v12.86c0,1.67-.6,3.13-1.78,4.3-1.17,1.17-2.59,1.74-4.26,1.74h-1.71c-1.67,0-3.13-.57-4.3-1.74ZM412.71,120.13c1.31,0,2.45-.46,3.38-1.39.92-.92,1.39-2.06,1.39-3.37v-12.86c0-1.31-.46-2.45-1.39-3.38s-2.06-1.38-3.38-1.38h-1.71c-1.31,0-2.42.46-3.37,1.42-.92.92-1.39,2.02-1.39,3.34v12.86c0,1.31.46,2.42,1.39,3.37.96.92,2.06,1.39,3.37,1.39h1.71Z"/><path class="cls-1" d="M442.83,96.79l11.12,22.02v-22.02h1.28v24.3h-1.6l-11.12-22.02v22.02h-1.28v-24.3h1.6Z"/><path class="cls-1" d="M512.88,118.96c0-1.74.57-3.38,1.67-4.94l9.17-12.01c.6-.82,1.03-1.95,1.07-2.52l.04-.46v-2.24h4.26v2.24c0,1.95-.67,3.8-1.99,5.58l-9.13,12.01c-.07.07-.82,1.14-.82,2.34v2.13h-4.26v-2.13Z"/><path class="cls-1" d="M549.26,118.96c0-1.74.57-3.38,1.67-4.94l9.17-12.01c.6-.82,1.03-1.95,1.07-2.52l.04-.46v-2.24h4.26v2.24c0,1.95-.67,3.8-1.99,5.58l-9.13,12.01c-.07.07-.82,1.14-.82,2.34v2.13h-4.26v-2.13Z"/><path class="cls-1" d="M637.28,116.4v4.69h-1.28v-4.69c0-.32-.04-.92-.11-1.74h-11.58c-.07.82-.11,1.42-.11,1.74v4.69h-1.28v-4.69c0-1.6.21-3.27.64-5.01l3.41-12.54c.39-1.42,1.67-2.38,3.13-2.38,1.53,0,2.74.96,3.13,2.38l3.41,12.54c.43,1.6.64,3.27.64,5.01ZM635.72,113.38c-.07-.57-.18-1.1-.32-1.63l-3.41-12.54c-.32-1.88-3.45-1.88-3.76,0l-3.41,12.54c-.14.53-.25,1.07-.32,1.63h11.23Z"/><path class="cls-1" d="M673.69,118.85v2.24h-1.28v-2.24c0-1.31-.46-2.45-1.39-3.45l-4.48-4.76h-5.15v10.44h-1.28v-24.3h7.32c1.67,0,3.09.6,4.26,1.78s1.78,2.59,1.78,4.26v1.78c0,1.53-.5,2.84-1.49,3.98-1,1.14-2.24,1.81-3.73,1.99l3.69,3.98c1.17,1.24,1.74,2.66,1.74,4.3ZM661.4,109.37h6.04c1.31,0,2.45-.46,3.37-1.38.92-.92,1.39-2.06,1.39-3.38v-1.78c0-1.31-.46-2.45-1.39-3.37-.92-.92-2.06-1.39-3.37-1.39h-6.04v11.3Z"/><path class="cls-1" d="M710.21,96.79v1.28h-6.71v23.02h-1.28v-23.02h-6.71v-1.28h14.71Z"/><path class="cls-1" d="M769.07,96.79h7.42c1.67,0,3.13.6,4.3,1.78s1.78,2.59,1.78,4.26v12.22c0,1.67-.6,3.13-1.78,4.3s-2.63,1.74-4.3,1.74h-7.42v-24.3ZM776.49,119.81c1.31,0,2.45-.46,3.37-1.38.96-.92,1.42-2.06,1.42-3.38v-12.22c0-1.31-.46-2.45-1.42-3.37-.92-.92-2.06-1.39-3.37-1.39h-6.15v21.74h6.15Z"/><path class="cls-1" d="M811.34,119.81v-21.74h-5.9v-1.28h13.07v1.28h-5.9v21.74h6.04v1.28h-13.36v-1.28h6.04Z"/><path class="cls-1" d="M855.57,118.85v2.24h-1.28v-2.24c0-1.31-.46-2.45-1.39-3.45l-4.48-4.76h-5.15v10.44h-1.28v-24.3h7.32c1.67,0,3.09.6,4.26,1.78,1.17,1.17,1.78,2.59,1.78,4.26v1.78c0,1.53-.5,2.84-1.49,3.98-.99,1.14-2.24,1.81-3.73,1.99l3.69,3.98c1.17,1.24,1.74,2.66,1.74,4.3ZM843.28,109.37h6.04c1.31,0,2.45-.46,3.38-1.38.92-.92,1.39-2.06,1.39-3.38v-1.78c0-1.31-.46-2.45-1.39-3.37-.92-.92-2.06-1.39-3.38-1.39h-6.04v11.3Z"/><path class="cls-1" d="M878.51,96.79h13.5v1.28h-12.22v10.23h11.08v1.28h-11.08v10.23h12.22v1.28h-13.5v-24.3Z"/><path class="cls-1" d="M926.89,101.38c-.53-2.13-2.38-3.62-4.62-3.62h-1.71c-1.31,0-2.42.46-3.38,1.42-.92.92-1.38,2.02-1.38,3.34v12.86c0,1.31.46,2.42,1.38,3.37.92.92,2.06,1.39,3.38,1.39h1.71c2.24,0,4.08-1.49,4.62-3.62l1.24.35c-.68,2.67-3.06,4.55-5.86,4.55h-1.71c-1.67,0-3.13-.57-4.3-1.74-1.17-1.17-1.74-2.63-1.74-4.3v-12.86c0-1.67.57-3.09,1.74-4.26s2.63-1.78,4.3-1.78h1.71c1.38,0,2.63.43,3.73,1.31,1.1.85,1.81,1.92,2.13,3.23l-1.24.36Z"/><path class="cls-1" d="M964.83,96.79v1.28h-6.71v23.02h-1.28v-23.02h-6.71v-1.28h14.71Z"/><path class="cls-1" d="M993.21,119.81v-21.74h-5.9v-1.28h13.07v1.28h-5.9v21.74h6.04v1.28h-13.36v-1.28h6.04Z"/><path class="cls-1" d="M1025.08,119.67c-1.17-1.17-1.74-2.63-1.74-4.3v-12.86c0-1.67.6-3.09,1.78-4.26s2.59-1.78,4.26-1.78h1.71c1.67,0,3.09.6,4.26,1.78,1.17,1.17,1.78,2.59,1.78,4.26v12.86c0,1.67-.6,3.13-1.78,4.3-1.17,1.17-2.59,1.74-4.26,1.74h-1.71c-1.67,0-3.13-.57-4.3-1.74ZM1031.08,120.13c1.31,0,2.45-.46,3.38-1.39.92-.92,1.39-2.06,1.39-3.37v-12.86c0-1.31-.46-2.45-1.39-3.38s-2.06-1.38-3.38-1.38h-1.71c-1.31,0-2.42.46-3.37,1.42-.92.92-1.39,2.02-1.39,3.34v12.86c0,1.31.46,2.42,1.39,3.37.96.92,2.06,1.39,3.37,1.39h1.71Z"/><path class="cls-1" d="M1061.2,96.79l11.12,22.02v-22.02h1.28v24.3h-1.6l-11.12-22.02v22.02h-1.28v-24.3h1.6Z"/></g></svg>