<?xml version="1.0" encoding="UTF-8"?><svg id="Layer_2" xmlns="http://www.w3.org/2000/svg" viewBox="0 0 697.91 560.31"><defs><style>.cls-1{fill:#fff;}</style></defs><g id="Layer_2-2"><path class="cls-1" d="M151.04,289.38c0-1.96.64-3.8,1.88-5.56l10.32-13.52c.68-.92,1.16-2.2,1.2-2.84l.04-.52v-2.52h4.8v2.52c0,2.2-.76,4.28-2.24,6.28l-10.28,13.52c-.08.08-.92,1.28-.92,2.64v2.4h-4.8v-2.4Z"/><path class="cls-1" d="M188.8,289.38c0-1.96.64-3.8,1.88-5.56l10.32-13.52c.68-.92,1.16-2.2,1.2-2.84l.04-.52v-2.52h4.8v2.52c0,2.2-.76,4.28-2.24,6.28l-10.28,13.52c-.08.08-.92,1.28-.92,2.64v2.4h-4.8v-2.4Z"/><path class="cls-1" d="M490.88,289.38c0-1.96.64-3.8,1.88-5.56l10.32-13.52c.68-.92,1.16-2.2,1.2-2.84l.04-.52v-2.52h4.8v2.52c0,2.2-.76,4.28-2.24,6.28l-10.28,13.52c-.08.08-.92,1.28-.92,2.64v2.4h-4.8v-2.4Z"/><path class="cls-1" d="M528.64,289.38c0-1.96.64-3.8,1.88-5.56l10.32-13.52c.68-.92,1.16-2.2,1.2-2.84l.04-.52v-2.52h4.8v2.52c0,2.2-.76,4.28-2.24,6.28l-10.28,13.52c-.08.08-.92,1.28-.92,2.64v2.4h-4.8v-2.4Z"/><path class="cls-1" d="M75.52,337.38c0-1.96.64-3.8,1.88-5.56l10.32-13.52c.68-.92,1.16-2.2,1.2-2.84l.04-.52v-2.52h4.8v2.52c0,2.2-.76,4.28-2.24,6.28l-10.28,13.52c-.08.08-.92,1.28-.92,2.64v2.4h-4.8v-2.4Z"/><path class="cls-1" d="M113.28,337.38c0-1.96.64-3.8,1.88-5.56l10.32-13.52c.68-.92,1.16-2.2,1.2-2.84l.04-.52v-2.52h4.8v2.52c0,2.2-.76,4.28-2.24,6.28l-10.28,13.52c-.08.08-.92,1.28-.92,2.64v2.4h-4.8v-2.4Z"/><path class="cls-1" d="M566.4,337.38c0-1.96.64-3.8,1.88-5.56l10.32-13.52c.68-.92,1.16-2.2,1.2-2.84l.04-.52v-2.52h4.8v2.52c0,2.2-.76,4.28-2.24,6.28l-10.28,13.52c-.08.08-.92,1.28-.92,2.64v2.4h-4.8v-2.4Z"/><path class="cls-1" d="M604.16,337.38c0-1.96.64-3.8,1.88-5.56l10.32-13.52c.68-.92,1.16-2.2,1.2-2.84l.04-.52v-2.52h4.8v2.52c0,2.2-.76,4.28-2.24,6.28l-10.28,13.52c-.08.08-.92,1.28-.92,2.64v2.4h-4.8v-2.4Z"/><path class="cls-1" d="M0,385.38c0-1.96.64-3.8,1.88-5.56l10.32-13.52c.68-.92,1.16-2.2,1.2-2.84l.04-.52v-2.52h4.8v2.52c0,2.2-.76,4.28-2.24,6.28l-10.28,13.52c-.08.08-.92,1.28-.92,2.64v2.4H0v-2.4Z"/><path class="cls-1" d="M37.76,385.38c0-1.96.64-3.8,1.88-5.56l10.32-13.52c.68-.92,1.16-2.2,1.2-2.84l.04-.52v-2.52h4.8v2.52c0,2.2-.76,4.28-2.24,6.28l-10.28,13.52c-.08.08-.92,1.28-.92,2.64v2.4h-4.8v-2.4Z"/><path class="cls-1" d="M641.92,385.38c0-1.96.64-3.8,1.88-5.56l10.32-13.52c.68-.92,1.16-2.2,1.2-2.84l.04-.52v-2.52h4.8v2.52c0,2.2-.76,4.28-2.24,6.28l-10.28,13.52c-.08.08-.92,1.28-.92,2.64v2.4h-4.8v-2.4Z"/><path class="cls-1" d="M679.68,385.38c0-1.96.64-3.8,1.88-5.56l10.32-13.52c.68-.92,1.16-2.2,1.2-2.84l.04-.52v-2.52h4.8v2.52c0,2.2-.76,4.28-2.24,6.28l-10.28,13.52c-.08.08-.92,1.28-.92,2.64v2.4h-4.8v-2.4Z"/><path class="cls-1" d="M359.01,471.38c-.97-.82-2.27-1.32-3.69-1.32s-2.72.5-3.69,1.32c-.99.83-1.64,2.01-1.71,3.34-.08,1.37.47,2.64,1.44,3.59.99.96,2.39,1.56,3.96,1.56s2.97-.6,3.96-1.56c.97-.94,1.52-2.22,1.44-3.59-.08-1.33-.73-2.51-1.71-3.34Z"/><path class="cls-1" d="M368.96,474.58c-.24-1.66-.81-3.22-1.69-4.63-.81-1.3-1.85-2.45-3.09-3.41h0s-12.5-9.6-12.5-9.6c-.01,0-.02-.02-.03-.03-.82-.63-2.2-.63-3.1,0-.91.64-1.02,1.69-.2,2.36h0s5.21,4.24,5.21,4.24l-15.89.02h-.02c-1.31,0-2.58.86-2.83,1.95-.26,1.11.64,2.03,2,2.03h0s8.06-.01,8.06-.01l-14.37,11.03s-.04.03-.06.04c-1.36,1.04-1.79,2.76-.94,3.86.87,1.11,2.71,1.11,4.08,0l7.84-6.42s-.11.87-.11,1.39c0,.52.18,1.54.43,2.33.53,1.68,1.42,3.23,2.66,4.6,1.27,1.41,2.84,2.54,4.65,3.34,1.9.84,3.96,1.27,6.1,1.27,2.14,0,4.2-.44,6.1-1.29,1.81-.81,3.37-1.94,4.64-3.35,1.24-1.37,2.13-2.93,2.65-4.61.26-.85.43-1.71.5-2.57.07-.85.04-1.7-.08-2.55ZM363.2,477.61c-.36.98-.94,1.91-1.73,2.71-1.62,1.65-3.88,2.58-6.33,2.59-2.45,0-4.72-.92-6.33-2.57-.79-.8-1.37-1.72-1.73-2.7-.35-.96-.49-1.99-.4-3.02.09-1.01.39-1.97.87-2.85.47-.86,1.12-1.63,1.92-2.29,1.57-1.28,3.57-1.97,5.66-1.98,2.09,0,4.09.68,5.67,1.96.8.65,1.45,1.42,1.92,2.28.48.87.78,1.83.87,2.84.09,1.03-.05,2.05-.4,3.02Z"/><path class="cls-1" d="M134.53,462.75l-13.51-7.79c-.77-.44-1.72-.44-2.49,0l-13.51,7.79c-.77.44-1.24,1.27-1.24,2.15v15.59c0,.89.48,1.71,1.24,2.15l13.51,7.79c.77.44,1.72.44,2.49,0l13.51-7.79c.77-.44,1.24-1.27,1.24-2.15v-15.59c0-.89-.48-1.71-1.24-2.15ZM126.58,466.13s.09.08.13.13c.59.59,1.06,1.27,1.39,1.99-.04.01-.08.03-.12.05-1.1.52-1.45,2.47-1.45,2.49-.23,1.48-.58,2.99-1.21,4.36-.1.2-.5.93-1.23,1.59-.02.02-.04.03-.06.05h0s-.06.05-.09.08c-2.2,1.87-5.55,1.72-7.69-.42-2.2-2.2-2.3-5.68-.26-7.86.03-.04.07-.07.1-.1.01-.01.03-.03.04-.04,0,0,.01-.01.02-.02.61-.61,1.23-.94,1.41-1.03,1.37-.63,2.88-.99,4.36-1.21.02,0,1.97-.34,2.49-1.45.02-.04.04-.08.05-.12.72.33,1.4.8,1.99,1.39.04.04.08.09.13.13ZM119.88,484.04c-3.01,0-5.83-1.16-7.97-3.27v-.02h-.02c-2.12-2.14-3.28-4.95-3.28-7.96,0-6.24,5.07-11.3,11.31-11.3.8,0,1.56,0,2.35.16.4.08,1.11.18,1.6.42.2.1.37.22.46.38.71,1.19-1.62,2-2.42,2.12-5.03.76-7.19,2.14-8.79,3.64,0,0,0,0,0,0-.1.09-.19.19-.29.28-.65.67-2.14,2.5-2.18,5.17.03,2.13.85,4.26,2.48,5.88,1.63,1.63,3.75,2.45,5.89,2.48,2.67-.04,4.5-1.53,5.17-2.18.09-.09.19-.19.28-.29,0,0,0,0,0,0,1.49-1.59,2.88-3.75,3.64-8.78.12-.8.93-3.13,2.12-2.42.16.09.28.26.38.46.24.49.34,1.2.42,1.6.16.79.16,1.55.16,2.35h0c0,6.24-5.07,11.3-11.31,11.3Z"/><path class="cls-1" d="M247.91,462.71l-13.56-7.82c-.77-.45-1.73-.45-2.5,0l-13.56,7.82c-.77.45-1.25,1.27-1.25,2.16v15.65c0,.89.48,1.72,1.25,2.16l13.56,7.82c.77.45,1.73.45,2.5,0l13.56-7.82c.77-.45,1.25-1.27,1.25-2.16v-15.65c0-.89-.48-1.72-1.25-2.16ZM225.12,469.54v7.85c0,.18-.09.36-.28.46l-2.37,1.46c-.36.18-.82-.09-.82-.46v-11.17c0-.69.37-1.34.98-1.68l3.6-2.06,6.02-3.44h0c.36-.18.82.09.82.46v2.74c0,.18-.09.37-.28.46l-6.85,4.02c-.55.28-.82.82-.82,1.37ZM231.52,471.45c-.36.27-.64.73-.64,1.19v7.94c0,.18-.09.36-.28.46l-2.37,1.46c-.36.18-.82-.09-.82-.46v-11.16c0-.69.37-1.34.98-1.68l1.86-1.06h0s7.75-4.44,7.75-4.44h0c.36-.19.82.09.82.45v2.74c0,.18-.09.36-.28.46l-7.03,4.11ZM243.48,480.12h0s-9.68,5.57-9.68,5.57c-.36.18-.82-.09-.82-.46v-11.32c0-.55.28-1,.73-1.28l6.94-4.02,2.93-1.64c.36-.18.82.09.82.46v11.04c.09.82-.28,1.37-.92,1.64Z"/><path class="cls-1" d="M448.19,482.6v5.66h4.96c-2.41-1.37-4.11-3.46-4.96-5.66Z"/><path class="cls-1" d="M469,476.69c0-5.24-4.21-10.28-10.53-10.49-4.47-.16-7.95,1.49-10.29,3.91v5.46c1.59-4.59,5.96-6.69,9.63-6.65,4.58.04,8.11,3.5,8.13,7.4.02,3.73-1.55,6.48-5.76,7.15-2.3.37-5.9-.98-5.74-4.45.09-1.79,1.48-2.8,3.08-2.73-1.57,2.1.51,3.64,1.97,3.32,1.81-.39,2.55-2,2.55-3.25,0-1.32-1.24-3.44-4.32-3.37-3.81.09-6.21,2.84-6.29,6.22-.1,4.27,3.89,7.07,7.99,7.12,6.02.08,9.59-3.87,9.58-9.65h.02Z"/><path class="cls-1" d="M448.19,457.13v8.96c2.68-2.06,6.16-3.38,10.29-3.38,8.83,0,14.45,6.18,14.44,13.96,0,5.41-2.52,9.48-6.48,11.6h12.89v-31.14h-31.14,0Z"/><path class="cls-1" d="M577.5,455.84c9.31.23,16.67,7.96,16.45,17.27-.23,9.31-7.96,16.67-17.27,16.45-9.31-.23-16.67-7.96-16.45-17.27v-.04c.25-9.3,7.97-16.64,17.27-16.41ZM577.5,457.58c-8.35-.23-15.3,6.35-15.53,14.7-.23,8.35,6.35,15.3,14.7,15.53,8.35.23,15.3-6.35,15.53-14.7v-.04c.21-8.34-6.36-15.27-14.7-15.5h0ZM585.71,469.25h3.37c1.37,0,.96-1.23.96-1.23-.64-1.8-1.65-3.44-2.97-4.82v.02c-1.34-1.4-2.94-2.52-4.72-3.27-.42-.22-.94-.06-1.16.36-.08.16-.12.34-.09.52-.06,1.13-.2,3.37-.2,3.37,0,0,.02,1.08-.88,1.08-1.14.02-2.09-.06-2.09-.06-.65-.07-1.27-.34-1.76-.77l-3.47-3.66c-.5-.57-1.34-.68-1.98-.28-3.09,1.59-5.45,4.3-6.62,7.57-.36,1,.47,1.13,1.03,1.13h8.43c.88-.08,1.75.25,2.36.88,1.1,1.16,1.87,1.92,1.87,1.92,0,0,.67.76,1.77,1.91.61.65.89,1.53.77,2.41,0,0-.41,8.07-.41,8.43-.04.56.05,1.4,1.08,1.09,3.32-1,6.14-3.22,7.89-6.22.44-.61.37-1.46-.17-1.99l-3.47-3.66c-.41-.52-.65-1.14-.7-1.8,0,0-.03-.96.05-2.09.06-.9,1.13-.82,1.13-.82h0ZM582.39,471.18c-.67.66-2.09.32-3.12-.77-1.03-1.09-1.3-2.53-.63-3.17.67-.64,2.11-.34,3.15.75,1.04,1.09,1.27,2.52.61,3.18Z"/><path class="cls-1" d="M529.87,527.04h-22.04c-3.34,0-6.04,2.7-6.04,6.04v21.19c0,3.34,2.7,6.04,6.04,6.04h22.04c3.34,0,6.04-2.7,6.04-6.04v-21.19c0-3.34-2.7-6.04-6.04-6.04ZM519.15,543.59c-.57.8-1.37,1.39-2.29,1.73-1.02.37-2.12.55-3.2.54-.34,0-.57,0-.71-.01s-.34-.01-.61-.01v4.51c.01.1-.06.18-.16.2h-2.86c-.11,0-.16-.06-.16-.18v-14.62c0-.11.04-.16.14-.16.24,0,.54,0,.87-.01.34-.01.7-.01,1.08-.03.38-.01.8-.01,1.24-.03.44-.01.87-.01,1.29-.01,1.17,0,2.13.14,2.93.44.71.24,1.37.64,1.91,1.17.46.46.81,1.01,1.04,1.62.21.6.33,1.21.33,1.85.01,1.22-.27,2.23-.84,3.01ZM528.61,541.67c.01.07-.04.14-.11.16h-2.18v4.91c0,.51.09.9.27,1.11.17.23.5.33.97.33.14,0,.27,0,.38-.01.13-.01.24-.01.37-.03.04-.01.09-.01.13.01.04.03.06.07.06.14v1.88c0,.17-.06.27-.18.3-.3.1-.61.17-.91.23-.37.07-.73.1-1.1.09-1,0-1.78-.26-2.33-.78-.57-.51-.85-1.35-.85-2.49v-5.67h-1.35c-.13,0-.18-.07-.18-.2v-2.26c0-.13.07-.18.2-.18h1.35c.01-.26.03-.55.06-.91.03-.34.06-.68.09-1.02.04-.34.07-.63.1-.84.01-.04.04-.09.07-.13s.07-.07.11-.09l2.73-.34c.06-.01.1-.01.13,0s.03.06.03.13c-.03.36-.06.82-.07,1.44-.01.6-.03,1.18-.04,1.75h2.13c.09,0,.14.06.14.18v2.32h0Z"/><path class="cls-1" d="M515.55,538.57c-.53-.21-1.1-.3-1.68-.28-.37,0-.7,0-.97.01-.28.01-.48.01-.58.03v4.74c.2.01.38.03.55.03h.75c.55.01,1.11-.07,1.64-.23.46-.13.85-.4,1.17-.75.3-.36.44-.84.44-1.46.01-.44-.1-.88-.33-1.27-.24-.37-.58-.65-1-.81Z"/><path class="cls-1" d="M175.82,538.13c-.53-.21-1.1-.3-1.67-.29-.37,0-.69,0-.97.01-.28,0-.48.02-.58.03v4.77c.2.02.38.02.55.02h.76c.56,0,1.11-.09,1.64-.26.45-.13.86-.4,1.17-.76.3-.35.45-.84.45-1.47.01-.44-.1-.88-.33-1.25-.24-.37-.59-.65-1-.81Z"/><path class="cls-1" d="M190.46,526.59h-23.17c-3.03,0-5.48,2.45-5.48,5.48v22.31c0,3.03,2.45,5.48,5.48,5.48h23.17c3.03,0,5.48-2.45,5.48-5.48v-22.31c0-3.03-2.45-5.48-5.48-5.48ZM179.4,543.15c-.57.8-1.37,1.4-2.29,1.72-.96.36-2.03.48-3.2.48-.34,0-.57,0-.71-.01-.14,0-.34-.01-.62-.01v4.57c.01.1-.06.19-.15.21-.02,0-.03,0-.05,0h-2.72c-.11,0-.16-.06-.16-.18v-14.63c0-.11.05-.16.14-.16.24,0,.47,0,.8-.01l1.09-.02,1.24-.03c.43,0,.87-.01,1.29-.01,1.16,0,2.14.14,2.93.43.72.24,1.37.64,1.91,1.17.46.46.81,1.01,1.04,1.61.21.59.32,1.22.31,1.84,0,1.22-.28,2.23-.85,3.02ZM189.46,548.68c-.4.57-.95,1.01-1.59,1.27-.7.31-1.55.46-2.58.46-.65,0-1.3-.05-1.93-.18-.5-.09-.99-.25-1.45-.46-.1-.05-.16-.16-.16-.27v-2.47s.02-.1.06-.13c.04-.02.09-.02.13.01.55.32,1.14.56,1.76.7.55.14,1.11.21,1.67.22.53,0,.93-.07,1.18-.21.23-.11.38-.34.38-.6-.02-.23-.15-.44-.34-.57-.23-.18-.69-.4-1.4-.66-.72-.25-1.4-.6-2.03-1.03-.45-.31-.82-.72-1.08-1.2-.23-.45-.34-.95-.33-1.45,0-.61.16-1.21.48-1.72.36-.57.88-1.02,1.49-1.3.67-.34,1.51-.5,2.52-.5.59,0,1.18.04,1.76.13.42.05.84.17,1.23.33.06.02.11.06.14.13.02.06.02.11.02.17v2.31c0,.05-.02.11-.07.14-.06.03-.14.03-.2,0-.43-.22-.89-.38-1.36-.48-.52-.12-1.06-.18-1.59-.18-.29,0-.58.03-.86.1-.18.04-.34.14-.45.29-.07.12-.11.25-.11.39,0,.13.05.26.14.37.13.16.3.28.48.38.33.18.66.33,1.01.47.77.26,1.5.61,2.19,1.04.47.29.85.7,1.12,1.18.23.45.34.96.33,1.47.01.67-.18,1.32-.55,1.88Z"/><path class="cls-1" d="M303.22,526.59h-22.04c-3.34,0-6.04,2.71-6.04,6.04v21.19c0,3.34,2.71,6.04,6.04,6.04h22.04c3.34,0,6.04-2.71,6.04-6.04v-21.19c0-3.34-2.71-6.04-6.04-6.04ZM293.22,550.05h-2.98c-.11.01-.2-.06-.23-.16l-1.17-3.39h-5.29l-1.08,3.35c-.03.13-.15.21-.27.21h-2.68c-.15,0-.21-.08-.16-.25l4.58-13.13c.05-.14.09-.27.14-.45.06-.31.09-.62.09-.93-.01-.08.04-.15.12-.16.01,0,.03,0,.04,0h3.64c.11,0,.17.04.18.12l5.2,14.58c.05.15,0,.23-.14.23ZM304.39,544.39c-.02.27-.04.47-.06.6-.01.1-.1.18-.21.18-.09,0-.25.01-.47.03-.22.02-.49.04-.82.05-.34,0-.68-.06-1.05-.06h-4.51c.06.45.2.88.44,1.26.26.38.62.68,1.04.85.57.25,1.19.37,1.82.36.5,0,.99-.06,1.48-.16.44-.06.86-.17,1.27-.33.08-.06.12-.02.12.12v2.17c0,.06,0,.12-.03.17-.03.04-.06.08-.1.1-.45.2-.93.35-1.42.43-.66.13-1.34.18-2.01.17-1.08,0-1.99-.17-2.72-.5-.69-.31-1.3-.77-1.79-1.35-.45-.55-.78-1.18-.98-1.87-.2-.67-.3-1.37-.3-2.07,0-.77.12-1.53.36-2.26.23-.71.59-1.37,1.07-1.95.47-.57,1.05-1.03,1.72-1.35.67-.33,1.46-.45,2.38-.45.76-.02,1.51.13,2.21.44.59.25,1.1.64,1.5,1.14.38.48.67,1.03.85,1.61.18.56.27,1.15.27,1.74,0,.34-.01.64-.03.92Z"/><path class="cls-1" d="M299.48,541.01c-.79-.05-1.53.37-1.9,1.08-.16.32-.26.66-.31,1.02h3c.37,0,.64,0,.81-.01.12-.01.23-.05.33-.11v-.14c0-.18-.04-.36-.09-.53-.25-.8-1.01-1.33-1.85-1.31Z"/><path class="cls-1" d="M287.29,541.42l-.41-1.31c-.14-.44-.26-.86-.38-1.26s-.22-.78-.31-1.11h-.02c-.13.62-.29,1.23-.48,1.83-.21.69-.43,1.39-.65,2.11-.22.72-.44,1.38-.65,1.99h3.62c-.09-.31-.2-.65-.32-1.03-.12-.38-.25-.79-.39-1.22Z"/><path class="cls-1" d="M403.44,541.42l-.41-1.31c-.14-.44-.26-.85-.38-1.26-.11-.4-.22-.77-.31-1.11h-.02c-.13.62-.29,1.23-.48,1.83-.21.69-.43,1.39-.65,2.11-.22.72-.44,1.38-.65,1.99h0s3.62,0,3.62,0c-.09-.31-.2-.65-.32-1.03-.12-.38-.25-.79-.39-1.22Z"/><path class="cls-1" d="M416.55,526.59h-22.04c-3.34,0-6.04,2.71-6.04,6.04v21.19c0,3.34,2.71,6.04,6.04,6.04h22.04c3.34,0,6.04-2.71,6.04-6.04v-21.19c0-3.34-2.71-6.04-6.04-6.04ZM409.37,550.1h-2.98c-.11.01-.2-.06-.23-.16l-1.17-3.38h-5.29l-1.08,3.34c-.03.13-.15.21-.27.21h-2.68c-.15,0-.21-.08-.16-.25l4.58-13.19c.05-.14.09-.29.14-.47.06-.31.09-.62.09-.93-.01-.08.04-.15.12-.16.01,0,.03,0,.04,0h3.64c.11,0,.17.04.18.12l5.2,14.65c.05.15,0,.23-.14.23ZM414.2,549.88c0,.15-.06.23-.18.23h-2.79c-.14,0-.21-.08-.21-.23v-10.95c0-.14.06-.21.18-.21h2.82c.12,0,.18.07.18.21v10.95ZM413.92,537.04c-.35.34-.83.53-1.32.5-.47.02-.93-.16-1.26-.5-.33-.35-.5-.82-.48-1.31-.02-.48.17-.94.51-1.27.34-.33.8-.5,1.27-.49.55,0,.98.16,1.29.49.32.34.49.8.47,1.27.02.48-.16.95-.49,1.31Z"/><path class="cls-1" d="M217.86,52.3c.7,3.5,3.6,5.9,7.1,5.9h6.9c3.9,0,7.2-3.2,7.2-7.2,0-4.3-2.5-7.4-7.6-9.3l-8.2-3.1c-10.3-4.1-15.4-10.6-15.4-19.4,0-5.3,1.9-9.8,5.6-13.5,3.7-3.8,8.3-5.7,13.6-5.7h4.8c4.4,0,8.3,1.4,11.8,4.1s5.7,6.2,6.8,10.4l-11.6,3.3c-.7-3.3-3.5-5.8-7-5.8h-4.8c-4,0-7.2,3.2-7.2,7.2,0,3.5,1.5,5.8,8,8.3l8.2,3.2c9.3,3.7,15,11,15,20.3,0,5.3-1.9,9.9-5.7,13.6-3.7,3.7-8.2,5.6-13.5,5.6h-6.9c-8.9,0-16.5-6.1-18.6-14.5l11.5-3.4Z"/><path class="cls-1" d="M370.46,41.7c.5,2.3,1.9,8.4,1.9,14.7v12.9h-12v-14.2h-22.8v14.2h-12v-12.9c0-2.3.2-4.8.5-7.4.4-2.7.7-4.6,1-5.9l.6-2.4,8.7-31.3c1.6-5.5,6.7-9.4,12.6-9.4s10.9,3.9,12.6,9.4l8.7,31.3.2,1ZM339.46,43.1h19l-8.3-30.2c-.2-.6-.6-.9-1.2-.9-.7,0-1.1.3-1.2.9l-8.3,30.2Z"/><path class="cls-1" d="M444.36.9h14.7l9.3,33.4L477.66.9h14.7v68.4h-12V21.8l-7.1,25.9h-9.8l-7.1-25.9v47.5h-12V.9Z"/><path class="cls-1" d="M37.36,120.9v13.4c0,4.1.3,8.2,1,12.1l3.3,21,3.7-21.9h10.2l3.7,21.9,3.3-21c.7-3.9,1-8,1-12.2v-13.3h12v13.4c0,4.7-.4,9.4-1.1,14.1l-6.9,40.9h-11.8l-5.3-26.1-5.3,26.1h-11.8l-6.9-40.9c-.7-4.7-1.1-9.4-1.1-14.1v-13.4h12Z"/><path class="cls-1" d="M191.36,161.7c.5,2.3,1.9,8.4,1.9,14.7v12.9h-12v-14.2h-22.8v14.2h-12v-12.9c0-2.3.2-4.8.5-7.4.4-2.7.7-4.6,1-5.9l.6-2.4,8.7-31.3c1.6-5.5,6.7-9.4,12.6-9.4s10.9,3.9,12.6,9.4l8.7,31.3.2,1ZM160.36,163.1h19l-8.3-30.2c-.2-.6-.6-.9-1.2-.9-.7,0-1.1.3-1.2.9l-8.3,30.2Z"/><path class="cls-1" d="M282.66,120.9v56.4h29.1v12h-41.1v-68.4h12Z"/><path class="cls-1" d="M400.26,120.9v27.9h3.9l12.9-14c2.2-2.5,3.3-5,3.3-7.7v-6.2h12v6.3c0,5.9-2.1,11.1-6.4,15.7l-11.1,11.9,11.8,12.5c1.9,2,3.4,4.3,4.5,7,1.1,2.6,1.7,4.5,1.8,5.7.2,1.1.3,2.1.3,3v6.3h-12v-6.2c0-2.7-1.1-5.2-3.3-7.5l-13.8-14.8h-3.9v28.5h-12v-68.4h12Z"/><path class="cls-1" d="M508.56,120.9h42v12h-30v16.2h27v12h-27v16.2h30v12h-42v-68.4Z"/><path class="cls-1" d="M670.26,183v6.3h-12v-6.3c0-2.7-1.1-5.2-3.3-7.5l-10.8-11.4h-4.8v25.2h-12v-68.4h22.8c5.3,0,9.9,1.9,13.6,5.6s5.6,8.3,5.6,13.6v4.8c0,7.3-4.2,14-10.6,17.2l5,5.2c4.3,4.7,6.5,9.9,6.5,15.7ZM639.36,152.1h10.8c4,0,7.2-3.2,7.2-7.2v-4.8c0-4-3.2-7.2-7.2-7.2h-10.8v19.2Z"/><path class="cls-1" d="M315.4,269.5c-.6-2.24-2.52-3.84-4.88-3.84h-1.92c-1.4,0-2.56.48-3.56,1.48-1,1-1.48,2.16-1.48,3.56v14.16c0,1.4.48,2.6,1.48,3.6,1,.96,2.16,1.44,3.56,1.44h1.92c2.36,0,4.28-1.6,4.88-3.84l1.84.56c-.76,3.04-3.52,5.2-6.72,5.2h-1.92c-1.92,0-3.56-.68-4.92-2-1.36-1.36-2.04-3-2.04-4.96v-14.16c0-1.92.68-3.56,2.04-4.92,1.36-1.36,3-2.04,4.92-2.04h1.92c1.6,0,3.04.48,4.28,1.48,1.24,1,2.08,2.24,2.44,3.76l-1.84.52Z"/><path class="cls-1" d="M354.92,269.5c-.6-2.24-2.52-3.84-4.88-3.84h-1.92c-1.4,0-2.56.48-3.56,1.48-1,.96-1.48,2.16-1.48,3.56v14.16c0,1.4.48,2.6,1.48,3.6,1,.96,2.16,1.44,3.56,1.44h1.92c1.4,0,2.56-.48,3.56-1.44,1-1,1.48-2.2,1.48-3.6v-6.12h-5.88v-1.92h7.8v8.04c0,1.92-.68,3.56-2.08,4.92-1.36,1.36-3,2.04-4.88,2.04h-1.92c-1.88,0-3.52-.68-4.92-2.04-1.36-1.36-2.04-3-2.04-4.92v-14.16c0-1.92.68-3.56,2.04-4.92,1.4-1.36,3.04-2.04,4.92-2.04h1.92c1.6,0,3.04.48,4.28,1.48,1.24,1,2.08,2.24,2.44,3.76l-1.84.52Z"/><path class="cls-1" d="M387.76,289.54v-23.52h-6.48v-1.92h14.88v1.92h-6.48v23.52h6.72v1.92h-15.36v-1.92h6.72Z"/><path class="cls-1" d="M240.92,312.1h2.56l6.08,16.24,6.08-16.24h2.56v27.36h-1.92v-23.84l-5.68,15.2h-2.08l-5.68-15.2v23.84h-1.92v-27.36Z"/><path class="cls-1" d="M283.44,337.78c-1.36-1.36-2.04-3-2.04-4.92v-14.16c0-1.92.68-3.56,2.04-4.92,1.4-1.36,3.04-2.04,4.92-2.04h1.92c1.92,0,3.56.68,4.92,2.04,1.36,1.36,2.04,3,2.04,4.92v14.16c0,1.92-.68,3.56-2.04,4.92-1.36,1.36-3,2.04-4.92,2.04h-1.92c-1.88,0-3.52-.68-4.92-2.04ZM290.28,337.9c1.4,0,2.6-.48,3.56-1.44,1-1,1.48-2.2,1.48-3.6v-14.16c0-1.4-.48-2.6-1.48-3.56-.96-1-2.16-1.48-3.56-1.48h-1.92c-1.4,0-2.6.48-3.6,1.48-.96.96-1.44,2.16-1.44,3.56v14.16c0,1.4.48,2.6,1.44,3.6,1,.96,2.2,1.44,3.6,1.44h1.92Z"/><path class="cls-1" d="M337.39,312.1v1.92h-7.36v25.44h-1.92v-25.44h-7.36v-1.92h16.64Z"/><path class="cls-1" d="M367.88,337.54v-23.52h-6.48v-1.92h14.88v1.92h-6.48v23.52h6.72v1.92h-15.36v-1.92h6.72Z"/><path class="cls-1" d="M402.72,337.78c-1.36-1.36-2.04-3-2.04-4.92v-14.16c0-1.92.68-3.56,2.04-4.92,1.4-1.36,3.04-2.04,4.92-2.04h1.92c1.92,0,3.56.68,4.92,2.04,1.36,1.36,2.04,3,2.04,4.92v14.16c0,1.92-.68,3.56-2.04,4.92-1.36,1.36-3,2.04-4.92,2.04h-1.92c-1.88,0-3.52-.68-4.92-2.04ZM409.56,337.9c1.4,0,2.6-.48,3.56-1.44,1-1,1.48-2.2,1.48-3.6v-14.16c0-1.4-.48-2.6-1.48-3.56-.96-1-2.16-1.48-3.56-1.48h-1.92c-1.4,0-2.6.48-3.6,1.48-.96.96-1.44,2.16-1.44,3.56v14.16c0,1.4.48,2.6,1.44,3.6,1,.96,2.2,1.44,3.6,1.44h1.92Z"/><path class="cls-1" d="M442.72,312.1l11.76,23.92v-23.92h1.92v27.36h-2.4l-11.76-23.92v23.92h-1.92v-27.36h2.4Z"/><path class="cls-1" d="M118.64,382.22v5.24h-1.92v-5.24c0-.2-.04-.8-.08-1.8h-12.44c-.08.76-.12,1.36-.12,1.8v5.24h-1.92v-5.24c0-1.76.24-3.68.72-5.76l3.8-13.88c.44-1.64,1.96-2.84,3.72-2.84s3.28,1.2,3.72,2.84l3.8,13.88c.48,1.8.72,3.72.72,5.76ZM116.36,378.5c-.04-.44-.16-.92-.32-1.52l-3.76-13.84c-.32-1.92-3.44-1.92-3.76,0l-3.76,13.84c-.16.6-.28,1.08-.32,1.52h11.92Z"/><path class="cls-1" d="M158.48,384.94v2.52h-1.92v-2.52c0-1.4-.52-2.68-1.6-3.8l-4.84-5.2h-5.36v11.52h-1.92v-27.36h8.4c1.92,0,3.56.68,4.92,2.04,1.36,1.36,2.04,3,2.04,4.92v1.92c0,1.68-.52,3.16-1.6,4.44-1.08,1.28-2.4,2.08-4.04,2.4l3.8,4c1.4,1.52,2.12,3.24,2.12,5.12ZM144.76,374.02h6.48c1.4,0,2.56-.48,3.56-1.48s1.48-2.16,1.48-3.56v-1.92c0-1.4-.48-2.56-1.48-3.56-1-1-2.16-1.48-3.56-1.48h-6.48v12Z"/><path class="cls-1" d="M198.24,360.1v1.92h-7.36v25.44h-1.92v-25.44h-7.36v-1.92h16.64Z"/><path class="cls-1" d="M262,360.1h8.44c1.92,0,3.56.68,4.88,2.04,1.36,1.32,2.04,2.96,2.04,4.92v13.44c0,1.96-.68,3.6-2.04,4.96-1.32,1.32-2.96,2-4.88,2h-8.44v-27.36ZM270.44,385.54c1.4,0,2.56-.48,3.52-1.44s1.48-2.2,1.48-3.6v-13.44c0-1.4-.48-2.6-1.48-3.56-.96-1-2.12-1.48-3.52-1.48h-6.52v23.52h6.52Z"/><path class="cls-1" d="M308.24,385.54v-23.52h-6.48v-1.92h14.88v1.92h-6.48v23.52h6.72v1.92h-15.36v-1.92h6.72Z"/><path class="cls-1" d="M357.27,384.94v2.52h-1.92v-2.52c0-1.4-.52-2.68-1.6-3.8l-4.84-5.2h-5.36v11.52h-1.92v-27.36h8.4c1.92,0,3.56.68,4.92,2.04,1.36,1.36,2.04,3,2.04,4.92v1.92c0,1.68-.52,3.16-1.6,4.44-1.08,1.28-2.4,2.08-4.04,2.4l3.8,4c1.4,1.52,2.12,3.24,2.12,5.12ZM343.56,374.02h6.48c1.4,0,2.56-.48,3.56-1.48s1.48-2.16,1.48-3.56v-1.92c0-1.4-.48-2.56-1.48-3.56-1-1-2.16-1.48-3.56-1.48h-6.48v12Z"/><path class="cls-1" d="M381.64,360.1h15.36v1.92h-13.44v10.8h12.2v1.92h-12.2v10.8h13.44v1.92h-15.36v-27.36Z"/><path class="cls-1" d="M434.67,365.5c-.6-2.24-2.52-3.84-4.88-3.84h-1.92c-1.4,0-2.56.48-3.56,1.48-1,1-1.48,2.16-1.48,3.56v14.16c0,1.4.48,2.6,1.48,3.6,1,.96,2.16,1.44,3.56,1.44h1.92c2.36,0,4.28-1.6,4.88-3.84l1.84.56c-.76,3.04-3.52,5.2-6.72,5.2h-1.92c-1.92,0-3.56-.68-4.92-2-1.36-1.36-2.04-3-2.04-4.96v-14.16c0-1.92.68-3.56,2.04-4.92,1.36-1.36,3-2.04,4.92-2.04h1.92c1.6,0,3.04.48,4.28,1.48,1.24,1,2.08,2.24,2.44,3.76l-1.84.52Z"/><path class="cls-1" d="M476.55,360.1v1.92h-7.36v25.44h-1.92v-25.44h-7.36v-1.92h16.64Z"/><path class="cls-1" d="M507.04,385.54v-23.52h-6.48v-1.92h14.88v1.92h-6.48v23.52h6.72v1.92h-15.36v-1.92h6.72Z"/><path class="cls-1" d="M541.88,385.78c-1.36-1.36-2.04-3-2.04-4.92v-14.16c0-1.92.68-3.56,2.04-4.92,1.4-1.36,3.04-2.04,4.92-2.04h1.92c1.92,0,3.56.68,4.92,2.04,1.36,1.36,2.04,3,2.04,4.92v14.16c0,1.92-.68,3.56-2.04,4.92-1.36,1.36-3,2.04-4.92,2.04h-1.92c-1.88,0-3.52-.68-4.92-2.04ZM548.71,385.9c1.4,0,2.6-.48,3.56-1.44,1-1,1.48-2.2,1.48-3.6v-14.16c0-1.4-.48-2.6-1.48-3.56-.96-1-2.16-1.48-3.56-1.48h-1.92c-1.4,0-2.6.48-3.6,1.48-.96.96-1.44,2.16-1.44,3.56v14.16c0,1.4.48,2.6,1.44,3.6,1,.96,2.2,1.44,3.6,1.44h1.92Z"/><path class="cls-1" d="M581.88,360.1l11.76,23.92v-23.92h1.92v27.36h-2.4l-11.76-23.92v23.92h-1.92v-27.36h2.4Z"/></g></svg>