<?xml version="1.0" encoding="UTF-8"?><svg id="Layer_2" xmlns="http://www.w3.org/2000/svg" viewBox="0 0 763.04 81.62"><defs><style>.cls-1{fill:#fff;}.cls-2{fill:#1d1d1b;}</style></defs><g id="Layer_2-2"><rect class="cls-1" width="763.04" height="81.62"/><path class="cls-2" d="M112.65,23.29h6.25l7.45,26.7,7.45-26.7h6.25l-9.98,33.95h-7.45l-9.98-33.95Z"/><path class="cls-2" d="M152.85,51.29v-22.04h-7v-5.96h19.95v5.96h-7v22.04h7.45v5.96h-20.85v-5.96h7.45Z"/><path class="cls-2" d="M175.63,23.29h20.85v5.96h-14.89v8.04h13.4v5.96h-13.4v8.04h14.89v5.96h-20.85V23.29Z"/><path class="cls-2" d="M207.5,23.29l3.28,23.68,1.74-11.17h4.57l1.74,11.17,3.28-23.68h6.06l-5.16,33.95h-5.66l-2.53-13.55-2.53,13.55h-5.66l-5.16-33.95h6.06Z"/><path class="cls-2" d="M261.85,23.29h7.3l4.62,16.58,4.62-16.58h7.3v33.95h-5.96v-23.58l-3.52,12.86h-4.87l-3.52-12.86v23.58h-5.96V23.29Z"/><path class="cls-2" d="M296.69,23.29l6.55,14,6.55-14h6.7l-10.27,20.85v13.1h-5.96v-13.1l-10.27-20.85h6.7Z"/><path class="cls-2" d="M361.62,22.84h2.08c2.63,0,4.86.94,6.7,2.83,1.89,1.84,2.83,4.07,2.83,6.7s-.65,4.91-1.89,6.45c-1.24,1.54-3.33,3.03-6.25,4.57l-1.74.84c-2.38,1.14-3.77,2.08-4.37,3.42-.6,1.24-.65,1.89-.65,3.52v.1h14.89v5.96h-20.85v-5.96c0-6.16,2.43-9.63,8.39-12.46l.7-.35c2.58-1.24,4.17-2.18,4.81-2.93.65-.74.99-1.79.99-3.18,0-1.99-1.59-3.57-3.57-3.57h-2.08c-1.74,0-3.18,1.19-3.52,2.93l-5.71-1.69c1.04-4.17,4.81-7.2,9.23-7.2Z"/><path class="cls-2" d="M399.59,25.67c1.89,1.84,2.83,4.07,2.83,6.7v15.78c0,2.63-.94,4.87-2.83,6.75s-4.07,2.78-6.7,2.78h-2.38c-2.63,0-4.86-.94-6.75-2.78-1.84-1.89-2.78-4.12-2.78-6.75v-15.78c0-2.63.94-4.86,2.78-6.7,1.89-1.89,4.12-2.83,6.75-2.83h2.38c2.63,0,4.86.94,6.7,2.83ZM386.93,32.37v8.49l9.38-9.43c-.4-1.54-1.79-2.63-3.42-2.63h-2.38c-1.94,0-3.57,1.59-3.57,3.57ZM396.46,48.16v-8.44l-9.38,9.38c.4,1.54,1.84,2.63,3.42,2.63h2.38c1.99,0,3.57-1.64,3.57-3.57Z"/><path class="cls-2" d="M420.58,22.84h2.08c2.63,0,4.86.94,6.7,2.83,1.89,1.84,2.83,4.07,2.83,6.7s-.65,4.91-1.89,6.45c-1.24,1.54-3.33,3.03-6.25,4.57l-1.74.84c-2.38,1.14-3.77,2.08-4.37,3.42-.6,1.24-.65,1.89-.65,3.52v.1h14.89v5.96h-20.85v-5.96c0-6.16,2.43-9.63,8.39-12.46l.7-.35c2.58-1.24,4.17-2.18,4.81-2.93.65-.74.99-1.79.99-3.18,0-1.99-1.59-3.57-3.57-3.57h-2.08c-1.74,0-3.18,1.19-3.52,2.93l-5.71-1.69c1.04-4.17,4.81-7.2,9.23-7.2Z"/><path class="cls-2" d="M458.25,37.39c1.89,1.84,2.83,4.12,2.83,6.75v4.02c0,2.63-.94,4.87-2.83,6.75s-4.07,2.78-6.7,2.78h-1.79c-2.63,0-4.86-.94-6.75-2.78-1.84-1.89-2.78-4.12-2.78-6.75v-4.02c0-4.76,1.34-8.83,3.97-12.21l6.65-8.64h7.5l-8.93,11.52c.84-.15,1.54-.2,1.99-.2h.15c2.63,0,4.86.94,6.7,2.78ZM455.13,44.14c0-1.99-1.59-3.57-3.57-3.57h-1.79c-1.99,0-3.57,1.59-3.57,3.57v4.02c0,1.99,1.59,3.57,3.57,3.57h1.79c1.99,0,3.57-1.59,3.57-3.57v-4.02Z"/><path class="cls-2" d="M503.82,48.8c.35,1.74,1.79,2.93,3.52,2.93h3.42c1.94,0,3.57-1.59,3.57-3.57,0-2.13-1.24-3.67-3.77-4.62l-4.07-1.54c-5.11-2.04-7.64-5.26-7.64-9.63,0-2.63.94-4.86,2.78-6.7,1.84-1.89,4.12-2.83,6.75-2.83h2.38c2.18,0,4.12.7,5.86,2.04s2.83,3.08,3.38,5.16l-5.76,1.64c-.35-1.64-1.74-2.88-3.47-2.88h-2.38c-1.99,0-3.57,1.59-3.57,3.57,0,1.74.74,2.88,3.97,4.12l4.07,1.59c4.62,1.84,7.45,5.46,7.45,10.08,0,2.63-.94,4.91-2.83,6.75-1.84,1.84-4.07,2.78-6.7,2.78h-3.42c-4.42,0-8.19-3.03-9.23-7.2l5.71-1.69Z"/><path class="cls-2" d="M549.53,23.29v33.95h-5.96v-14h-8.93v14h-5.96V23.29h5.96v14h8.93v-14h5.96Z"/><path class="cls-2" d="M560.65,54.91c-1.84-1.89-2.78-4.12-2.78-6.75v-15.78c0-2.63.94-4.86,2.78-6.7,1.89-1.89,4.12-2.83,6.75-2.83h2.38c2.63,0,4.86.94,6.7,2.83,1.89,1.84,2.83,4.07,2.83,6.7v15.78c0,2.63-.94,4.87-2.83,6.75s-4.07,2.78-6.7,2.78h-2.38c-2.63,0-4.86-.94-6.75-2.78ZM569.78,51.73c1.99,0,3.57-1.59,3.57-3.57v-15.78c0-1.99-1.59-3.57-3.57-3.57h-2.38c-1.99,0-3.57,1.59-3.57,3.57v15.78c0,1.99,1.59,3.57,3.57,3.57h2.38Z"/><path class="cls-2" d="M590.78,23.29l3.28,23.68,1.74-11.17h4.57l1.74,11.17,3.28-23.68h6.06l-5.16,33.95h-5.66l-2.53-13.55-2.53,13.55h-5.66l-5.16-33.95h6.06Z"/><path class="cls-2" d="M633.42,57.24l-5.56-12.51h-4.12v12.51h-5.96V23.29h11.32c2.63,0,4.91.94,6.75,2.78,1.84,1.84,2.78,4.12,2.78,6.75v2.38c0,3.52-1.94,6.7-4.91,8.34l6.25,13.7h-6.55ZM623.74,38.78h5.36c1.99,0,3.57-1.59,3.57-3.57v-2.38c0-1.94-1.59-3.57-3.57-3.57h-5.36v9.53Z"/><path class="cls-2" d="M647.36,23.29h20.85v5.96h-14.89v8.04h13.4v5.96h-13.4v8.04h14.89v5.96h-20.85V23.29Z"/><path class="cls-2" d="M676.84,23.29h20.85v5.96h-14.89v8.04h13.4v5.96h-13.4v8.04h14.89v5.96h-20.85V23.29Z"/><path class="cls-2" d="M712.73,23.29v28h14.44v5.96h-20.4V23.29h5.96Z"/><path class="cls-2" d="M33.52,61.52c-1.26,0-2.35-.45-3.25-1.35-.9-.9-1.35-1.98-1.35-3.25V24.73c0-1.26.45-2.35,1.35-3.25.9-.9,1.98-1.35,3.25-1.35h16.1v4.6h-16.1v32.19h32.19v-16.1h4.6v16.1c0,1.26-.45,2.35-1.35,3.25-.9.9-1.98,1.35-3.25,1.35h-32.19ZM44.33,49.33l-3.22-3.22,21.38-21.38h-8.28v-4.6h16.1v16.1h-4.6v-8.28l-21.38,21.38Z"/></g></svg>