<?xml version="1.0" encoding="UTF-8"?><svg id="Layer_2" xmlns="http://www.w3.org/2000/svg" viewBox="0 0 683.79 207.08"><defs><style>.cls-1{fill:#fff;}.cls-2{fill:#1d1d1b;}</style></defs><g id="Layer_2-2"><rect class="cls-1" width="683.79" height="207.08"/><path class="cls-2" d="M243.12,31.22h9.45l11.25,40.35,11.25-40.35h9.45l-15.08,51.3h-11.25l-15.07-51.3Z"/><path class="cls-2" d="M303.87,73.52v-33.3h-10.57v-9h30.15v9h-10.58v33.3h11.25v9h-31.5v-9h11.25Z"/><path class="cls-2" d="M338.3,31.22h31.5v9h-22.5v12.15h20.25v9h-20.25v12.15h22.5v9h-31.5V31.22Z"/><path class="cls-2" d="M386.45,31.22l4.95,35.77,2.62-16.87h6.9l2.62,16.87,4.95-35.77h9.15l-7.8,51.3h-8.55l-3.82-20.47-3.83,20.47h-8.55l-7.8-51.3h9.15Z"/><path class="cls-2" d="M468.57,31.22h11.03l6.97,25.05,6.97-25.05h11.02v51.3h-9v-35.62l-5.32,19.42h-7.35l-5.33-19.42v35.62h-9V31.22Z"/><path class="cls-2" d="M521.22,31.22l9.9,21.15,9.9-21.15h10.12l-15.52,31.5v19.8h-9v-19.8l-15.52-31.5h10.12Z"/><path class="cls-2" d="M73.7,120.55h3.15c3.97,0,7.35,1.42,10.12,4.27,2.85,2.78,4.28,6.15,4.28,10.12s-.98,7.42-2.85,9.75c-1.88,2.33-5.02,4.58-9.45,6.9l-2.62,1.27c-3.6,1.73-5.7,3.15-6.6,5.17-.9,1.88-.97,2.85-.97,5.33v.15h22.5v9h-31.5v-9c0-9.3,3.67-14.55,12.67-18.82l1.05-.52c3.9-1.88,6.3-3.3,7.27-4.42s1.5-2.7,1.5-4.8c0-3-2.4-5.4-5.4-5.4h-3.15c-2.62,0-4.8,1.8-5.32,4.42l-8.62-2.55c1.58-6.3,7.27-10.87,13.95-10.87Z"/><path class="cls-2" d="M131.07,124.82c2.85,2.78,4.28,6.15,4.28,10.12v23.85c0,3.97-1.42,7.35-4.28,10.2s-6.15,4.2-10.12,4.2h-3.6c-3.98,0-7.35-1.42-10.2-4.2-2.77-2.85-4.2-6.23-4.2-10.2v-23.85c0-3.97,1.42-7.35,4.2-10.12,2.85-2.85,6.22-4.27,10.2-4.27h3.6c3.97,0,7.35,1.42,10.12,4.27ZM111.95,134.95v12.82l14.17-14.25c-.6-2.33-2.7-3.98-5.17-3.98h-3.6c-2.93,0-5.4,2.4-5.4,5.4ZM126.35,158.8v-12.75l-14.17,14.17c.6,2.33,2.77,3.98,5.17,3.98h3.6c3,0,5.4-2.48,5.4-5.4Z"/><path class="cls-2" d="M162.8,120.55h3.15c3.97,0,7.35,1.42,10.12,4.27,2.85,2.78,4.28,6.15,4.28,10.12s-.98,7.42-2.85,9.75c-1.88,2.33-5.02,4.58-9.45,6.9l-2.62,1.27c-3.6,1.73-5.7,3.15-6.6,5.17-.9,1.88-.97,2.85-.97,5.33v.15h22.5v9h-31.5v-9c0-9.3,3.67-14.55,12.67-18.82l1.05-.52c3.9-1.88,6.3-3.3,7.27-4.42s1.5-2.7,1.5-4.8c0-3-2.4-5.4-5.4-5.4h-3.15c-2.62,0-4.8,1.8-5.32,4.42l-8.62-2.55c1.58-6.3,7.27-10.87,13.95-10.87Z"/><path class="cls-2" d="M219.72,142.52c2.85,2.78,4.27,6.22,4.27,10.2v6.07c0,3.97-1.42,7.35-4.27,10.2-2.78,2.77-6.15,4.2-10.12,4.2h-2.7c-3.97,0-7.35-1.42-10.2-4.2-2.78-2.85-4.2-6.23-4.2-10.2v-6.07c0-7.2,2.03-13.35,6-18.45l10.05-13.05h11.32l-13.5,17.4c1.27-.23,2.32-.3,3-.3h.22c3.97,0,7.35,1.42,10.12,4.2ZM215,152.72c0-3-2.4-5.4-5.4-5.4h-2.7c-3,0-5.4,2.4-5.4,5.4v6.07c0,3,2.4,5.4,5.4,5.4h2.7c3,0,5.4-2.4,5.4-5.4v-6.07Z"/><path class="cls-2" d="M288.57,159.77c.53,2.62,2.7,4.42,5.33,4.42h5.17c2.92,0,5.4-2.4,5.4-5.4,0-3.22-1.88-5.55-5.7-6.97l-6.15-2.33c-7.72-3.07-11.55-7.95-11.55-14.55,0-3.97,1.42-7.35,4.2-10.12,2.78-2.85,6.23-4.27,10.2-4.27h3.6c3.3,0,6.22,1.05,8.85,3.07,2.62,2.03,4.27,4.65,5.1,7.8l-8.7,2.48c-.53-2.48-2.62-4.35-5.25-4.35h-3.6c-3,0-5.4,2.4-5.4,5.4,0,2.62,1.12,4.35,6,6.22l6.15,2.4c6.98,2.78,11.25,8.25,11.25,15.22,0,3.97-1.42,7.42-4.27,10.2-2.78,2.77-6.15,4.2-10.12,4.2h-5.17c-6.67,0-12.37-4.57-13.95-10.87l8.62-2.55Z"/><path class="cls-2" d="M357.64,121.22v51.3h-9v-21.15h-13.5v21.15h-9v-51.3h9v21.15h13.5v-21.15h9Z"/><path class="cls-2" d="M374.45,169c-2.77-2.85-4.2-6.23-4.2-10.2v-23.85c0-3.97,1.42-7.35,4.2-10.12,2.85-2.85,6.22-4.27,10.2-4.27h3.6c3.97,0,7.35,1.42,10.12,4.27,2.85,2.78,4.28,6.15,4.28,10.12v23.85c0,3.97-1.42,7.35-4.28,10.2s-6.15,4.2-10.12,4.2h-3.6c-3.98,0-7.35-1.42-10.2-4.2ZM388.25,164.2c3,0,5.4-2.4,5.4-5.4v-23.85c0-3-2.4-5.4-5.4-5.4h-3.6c-3,0-5.4,2.4-5.4,5.4v23.85c0,3,2.4,5.4,5.4,5.4h3.6Z"/><path class="cls-2" d="M419.97,121.22l4.95,35.77,2.62-16.87h6.9l2.62,16.87,4.95-35.77h9.15l-7.8,51.3h-8.55l-3.82-20.47-3.83,20.47h-8.55l-7.8-51.3h9.15Z"/><path class="cls-2" d="M484.39,172.52l-8.4-18.9h-6.22v18.9h-9v-51.3h17.1c3.98,0,7.42,1.42,10.2,4.2s4.2,6.22,4.2,10.2v3.6c0,5.33-2.92,10.12-7.42,12.6l9.45,20.7h-9.9ZM469.77,144.62h8.1c3,0,5.4-2.4,5.4-5.4v-3.6c0-2.92-2.4-5.4-5.4-5.4h-8.1v14.4Z"/><path class="cls-2" d="M505.47,121.22h31.5v9h-22.5v12.15h20.25v9h-20.25v12.15h22.5v9h-31.5v-51.3Z"/><path class="cls-2" d="M550.02,121.22h31.5v9h-22.5v12.15h20.25v9h-20.25v12.15h22.5v9h-31.5v-51.3Z"/><path class="cls-2" d="M604.24,121.22v42.3h21.82v9h-30.82v-51.3h9Z"/><path class="cls-2" d="M139.71,86.22c-1.74,0-3.23-.62-4.46-1.86-1.24-1.24-1.86-2.73-1.86-4.46v-44.25c0-1.74.62-3.23,1.86-4.46,1.24-1.24,2.73-1.86,4.46-1.86h22.13v6.32h-22.13v44.25h44.25v-22.13h6.32v22.13c0,1.74-.62,3.23-1.86,4.46-1.24,1.24-2.73,1.86-4.46,1.86h-44.25ZM154.56,69.47l-4.43-4.43,29.4-29.4h-11.38v-6.32h22.13v22.13h-6.32v-11.38l-29.4,29.4Z"/></g></svg>